<svg xmlns="http://www.w3.org/2000/svg" font-family="-apple-system, system-ui, sans-serif" viewBox="0 0 800 260"><defs><marker id="arrowhead" markerHeight="7" markerWidth="10" orient="auto" refX="10" refY="3.5"><path fill="#666" d="m0 0 10 3.5L0 7z"/></marker><style>.box{fill:#1a1a1a;stroke:#1a5a96;stroke-width:2}.label,.sub{fill:#e0e0e0;font-size:13px;text-anchor:middle}.sub{fill:#888;font-size:10px}.arrow{stroke:#666;stroke-width:2;fill:none;marker-end:url(#arrowhead)}</style></defs><path fill="#111" d="M0 0h800v260H0z"/><rect width="110" height="50" x="20" y="105" class="box" rx="8"/><text x="75" y="127" class="label">Browser</text><text x="75" y="143" class="sub">PWA</text><path d="M132 130h26" class="arrow"/><rect width="160" height="50" x="160" y="105" class="box" rx="8"/><text x="240" y="127" class="label">Vercel Express API</text><text x="240" y="143" class="sub">auth + routes + sessions</text><path d="m322 118 36-63" class="arrow"/><path d="m322 130 36 15" class="arrow"/><path d="m322 142 36 73" class="arrow"/><rect width="200" height="50" x="360" y="30" class="box" rx="8"/><text x="460" y="52" class="label">BC Self-Serve</text><text x="460" y="68" class="sub">Puppeteer + @sparticuz/chromium</text><rect width="200" height="50" x="360" y="120" class="box" rx="8"/><text x="460" y="142" class="label">Vercel Blob Cache</text><text x="460" y="158" class="sub">tally-cache/userId/results.json</text><rect width="200" height="50" x="360" y="190" class="box" rx="8"/><text x="460" y="212" class="label">D2L Brightspace</text><text x="460" y="228" class="sub">Playwright + shadow DOM</text><path d="M562 55h26" class="arrow"/><path d="M562 215h26" class="arrow"/><rect width="180" height="50" x="590" y="30" class="box" rx="8"/><text x="680" y="52" class="label">myselfserve.gov.bc.ca</text><text x="680" y="68" class="sub">BC government portal</text><rect width="180" height="50" x="590" y="190" class="box" rx="8"/><text x="680" y="212" class="label">langleysd35.olbc.com</text><text x="680" y="228" class="sub">D2L course portal</text></svg>