<svg xmlns="http://www.w3.org/2000/svg" font-family="-apple-system, BlinkMacSystemFont, 'Segoe UI', sans-serif" viewBox="0 0 800 320"><rect width="800" height="320" fill="#0c1220" rx="12"/><text x="400" y="36" fill="#4e9cd7" font-size="13" font-weight="600" letter-spacing=".12em" text-anchor="middle">TALLY IOS ARCHITECTURE</text><rect width="160" height="180" x="40" y="70" fill="none" stroke="#1a5a96" stroke-width="2" rx="10"/><text x="120" y="96" fill="#4e9cd7" font-size="11" font-weight="700" letter-spacing=".08em" text-anchor="middle">SWIFTUI VIEWS</text><text x="120" y="120" fill="#c0cfe0" font-size="11" text-anchor="middle">DashboardView</text><text x="120" y="140" fill="#c0cfe0" font-size="11" text-anchor="middle">ReportsView</text><text x="120" y="160" fill="#c0cfe0" font-size="11" text-anchor="middle">SettingsView</text><text x="120" y="180" fill="#c0cfe0" font-size="11" text-anchor="middle">LoginSheet</text><text x="120" y="200" fill="#c0cfe0" font-size="11" text-anchor="middle">ContentView</text><text x="120" y="220" fill="#8a9ebc" font-size="10" text-anchor="middle">@Observable</text><text x="120" y="236" fill="#8a9ebc" font-size="10" text-anchor="middle">environment</text><path stroke="#2472b2" stroke-width="1.5" marker-end="url(#a)" d="M200 160h48"/><rect width="160" height="180" x="250" y="70" fill="none" stroke="#1a5a96" stroke-width="2" rx="10"/><text x="330" y="96" fill="#4e9cd7" font-size="11" font-weight="700" letter-spacing=".08em" text-anchor="middle">APPSTATE</text><text x="330" y="118" fill="#c0cfe0" font-size="11" text-anchor="middle">dashboard</text><text x="330" y="138" fill="#c0cfe0" font-size="11" text-anchor="middle">isLoggedIn</text><text x="330" y="158" fill="#c0cfe0" font-size="11" text-anchor="middle">sessionExpiry</text><text x="330" y="178" fill="#c0cfe0" font-size="11" text-anchor="middle">daysUntilPayment</text><text x="330" y="200" fill="#8a9ebc" font-size="10" text-anchor="middle">login / logout</text><text x="330" y="216" fill="#8a9ebc" font-size="10" text-anchor="middle">loadDashboard</text><text x="330" y="232" fill="#8a9ebc" font-size="10" text-anchor="middle">refreshData</text><path stroke="#2472b2" stroke-width="1.5" marker-end="url(#a)" d="M410 160h48"/><rect width="160" height="180" x="460" y="70" fill="none" stroke="#1a5a96" stroke-width="2" rx="10"/><text x="540" y="96" fill="#4e9cd7" font-size="11" font-weight="700" letter-spacing=".08em" text-anchor="middle">TALLYAPI</text><text x="540" y="118" fill="#c0cfe0" font-size="11" text-anchor="middle">URLSession</text><text x="540" y="138" fill="#c0cfe0" font-size="11" text-anchor="middle">Cookie jar</text><text x="540" y="158" fill="#c0cfe0" font-size="11" text-anchor="middle">login / logout</text><text x="540" y="178" fill="#c0cfe0" font-size="11" text-anchor="middle">fetchLatest</text><text x="540" y="198" fill="#c0cfe0" font-size="11" text-anchor="middle">submitReport</text><text x="540" y="218" fill="#c0cfe0" font-size="11" text-anchor="middle">refreshData</text><text x="540" y="238" fill="#8a9ebc" font-size="10" text-anchor="middle">401 -&gt; re-auth</text><path stroke="#2472b2" stroke-width="1.5" marker-end="url(#a)" d="M620 160h48"/><rect width="100" height="100" x="670" y="70" fill="none" stroke="#1a5a96" stroke-width="2" rx="10"/><text x="720" y="96" fill="#4e9cd7" font-size="11" font-weight="700" letter-spacing=".06em" text-anchor="middle">VERCEL</text><text x="720" y="116" fill="#c0cfe0" font-size="10" text-anchor="middle">/api/login</text><text x="720" y="133" fill="#c0cfe0" font-size="10" text-anchor="middle">/api/latest</text><text x="720" y="150" fill="#c0cfe0" font-size="10" text-anchor="middle">/api/check</text><path stroke="#2472b2" stroke-width="1.5" marker-end="url(#a)" d="M720 170v38"/><rect width="120" height="50" x="660" y="210" fill="none" stroke="#2472b2" stroke-width="1.5" rx="10"/><text x="720" y="232" fill="#4e9cd7" font-size="10" font-weight="700" text-anchor="middle">BC SELF-SERVE</text><text x="720" y="250" fill="#8a9ebc" font-size="10" text-anchor="middle">Puppeteer scrape</text><text x="540" y="270" fill="#8a9ebc" font-size="10" font-style="italic" text-anchor="middle">Session cookie (2 hr)</text><defs><marker id="a" markerHeight="8" markerWidth="8" orient="auto" refX="6" refY="3"><path fill="#2472b2" d="M0 0v6l8-3z"/></marker></defs></svg>