<svg xmlns="http://www.w3.org/2000/svg" width="200" height="200" viewBox="0 0 200 200"><rect width="200" height="200" fill="#0c1220" rx="32"/><rect width="96" height="116" x="52" y="52" fill="none" stroke="#4e9cd7" stroke-width="2.5" rx="8"/><rect width="48" height="16" x="76" y="43" fill="#1a5a96" rx="5"/><rect width="32" height="10" x="84" y="38" fill="#0c1220" stroke="#4e9cd7" stroke-width="1.5" rx="5"/><rect width="13" height="13" x="66" y="74" fill="none" stroke="#4e9cd7" stroke-width="1.5" rx="3"/><path fill="none" stroke="#2472b2" stroke-linecap="round" stroke-linejoin="round" stroke-width="2" d="m69 81 3 3 5-8"/><rect width="48" height="5" x="86" y="78" fill="#1a5a96" opacity=".7" rx="2.5"/><rect width="13" height="13" x="66" y="98" fill="none" stroke="#4e9cd7" stroke-width="1.5" rx="3"/><path fill="none" stroke="#2472b2" stroke-linecap="round" stroke-linejoin="round" stroke-width="2" d="m69 105 3 3 5-8"/><rect width="40" height="5" x="86" y="102" fill="#1a5a96" opacity=".7" rx="2.5"/><rect width="13" height="13" x="66" y="122" fill="none" stroke="#4e9cd7" stroke-width="1.5" rx="3"/><rect width="44" height="5" x="86" y="126" fill="#1a5a96" opacity=".35" rx="2.5"/><g stroke="#4e9cd7"><path fill="#1a5a96" stroke-width="1.2" d="m132 129 12 5v11c0 7-12 13-12 13s-12-6-12-13v-11Z" opacity=".3"/><path fill="none" stroke-linecap="round" stroke-linejoin="round" stroke-width="1.5" d="m129 143 2 3 5-6"/></g></svg>