<svg xmlns="http://www.w3.org/2000/svg" width="700" height="400" viewBox="0 0 700 400"><path d="M0 0h700v400H0z" style="fill:#fff"/><rect width="120" height="50" x="40" y="160" rx="8" style="fill:#f5f5f5;stroke:#e5e5e5;stroke-width:1.5"/><text x="100" y="190" style="fill:#171717;font-family:-apple-system,system-ui,sans-serif;font-size:14px;text-anchor:middle">Browser</text><path d="M160 185h70" style="stroke:#a3a3a3;stroke-width:1.5"/><path d="m228 180 10 5-10 5z" style="fill:#a3a3a3"/><text x="195" y="178" style="fill:#a3a3a3;font-family:-apple-system,system-ui,sans-serif;font-size:10px;text-anchor:middle">HTTP</text><rect width="140" height="90" x="240" y="140" rx="8" style="fill:#f5f5f5;stroke:#e5e5e5;stroke-width:1.5"/><text x="310" y="170" style="fill:#171717;font-family:-apple-system,system-ui,sans-serif;font-size:14px;font-weight:500;text-anchor:middle">Express</text><text x="310" y="190" style="fill:#737373;font-family:-apple-system,system-ui,sans-serif;font-size:11px;text-anchor:middle">src/server.js</text><text x="310" y="206" style="fill:#737373;font-family:-apple-system,system-ui,sans-serif;font-size:10px;text-anchor:middle">GET /api/grades</text><text x="310" y="220" style="fill:#737373;font-family:-apple-system,system-ui,sans-serif;font-size:10px;text-anchor:middle">GET /</text><path d="M380 185h60" style="stroke:#a3a3a3;stroke-width:1.5"/><path d="m438 180 10 5-10 5z" style="fill:#a3a3a3"/><text x="410" y="178" style="fill:#a3a3a3;font-family:-apple-system,system-ui,sans-serif;font-size:10px;text-anchor:middle">require</text><rect width="130" height="50" x="450" y="160" rx="8" style="fill:#f5f5f5;stroke:#e5e5e5;stroke-width:1.5"/><text x="515" y="183" style="fill:#171717;font-family:-apple-system,system-ui,sans-serif;font-size:12px;text-anchor:middle">school-grades.js</text><text x="515" y="200" style="fill:#737373;font-family:-apple-system,system-ui,sans-serif;font-size:10px;text-anchor:middle">loader + staleness</text><path d="M580 185h30" style="stroke:#a3a3a3;stroke-width:1.5"/><path d="m608 180 10 5-10 5z" style="fill:#a3a3a3"/><rect width="60" height="50" x="620" y="160" rx="8" style="fill:#f5f5f5;stroke:#16a34a;stroke-width:1.5"/><text x="650" y="183" style="fill:#171717;font-family:-apple-system,system-ui,sans-serif;font-size:11px;text-anchor:middle">grades</text><text x="650" y="198" style="fill:#737373;font-family:-apple-system,system-ui,sans-serif;font-size:10px;text-anchor:middle">.json</text><rect width="150" height="60" x="530" y="50" rx="8" style="fill:#f5f5f5;stroke:#e5e5e5;stroke-width:1.5"/><text x="605" y="74" style="fill:#171717;font-family:-apple-system,system-ui,sans-serif;font-size:13px;font-weight:500;text-anchor:middle">Python Scrapers</text><text x="605" y="92" style="fill:#737373;font-family:-apple-system,system-ui,sans-serif;font-size:10px;text-anchor:middle">grades.py / scrape_pdfs.py</text><text x="605" y="104" style="fill:#737373;font-family:-apple-system,system-ui,sans-serif;font-size:10px;text-anchor:middle">Playwright + BeautifulSoup</text><path d="M650 110v45" style="stroke:#a3a3a3;stroke-width:1.5"/><path d="m645 153 5 10 5-10z" style="fill:#a3a3a3"/><text x="660" y="138" style="fill:#a3a3a3;font-family:-apple-system,system-ui,sans-serif;font-size:10px">writes</text><rect width="150" height="50" x="530" y="300" rx="8" style="fill:#f5f5f5;stroke:#d97706;stroke-width:1.5"/><text x="605" y="322" style="fill:#171717;font-family:-apple-system,system-ui,sans-serif;font-size:13px;font-weight:500;text-anchor:middle">D2L Brightspace</text><text x="605" y="340" style="fill:#737373;font-family:-apple-system,system-ui,sans-serif;font-size:10px;text-anchor:middle">Langley SD35</text><path d="M605 300V115" style="stroke:#d97706;stroke-width:1.5;stroke-dasharray:4,3"/><path d="m600 117 5-10 5 10z" style="fill:#d97706"/><text x="615" y="260" style="fill:#d97706;font-family:-apple-system,system-ui,sans-serif;font-size:10px">scrape</text><rect width="120" height="50" x="40" y="50" rx="8" style="fill:#f5f5f5;stroke:#e5e5e5;stroke-width:1.5"/><text x="100" y="73" style="fill:#171717;font-family:-apple-system,system-ui,sans-serif;font-size:13px;text-anchor:middle">school.html</text><text x="100" y="90" style="fill:#737373;font-family:-apple-system,system-ui,sans-serif;font-size:10px;text-anchor:middle">web/school.html</text><path d="m240 155-85-60" style="stroke:#a3a3a3;stroke-width:1.5"/><path d="m160 100-8-8-2 10z" style="fill:#a3a3a3"/><text x="210" y="118" style="fill:#a3a3a3;font-family:-apple-system,system-ui,sans-serif;font-size:10px">serves</text></svg>